# xmcd CD database file
#
# Track frame offsets:
#	150
#	50032
#	85901
#	117871
#	152903
#	182329
#
# Disc length: 3121 seconds
#
# Revision: 1
# Processed by: cddbd v1.4PL0 Copyright (c) Steve Scherf et al.
# Submitted via: CDex 1.51
#
DISCID=450c2f06
DTITLE=Midori - Heaven's Breath 
DYEAR=2001
DGENRE=New Age
TTITLE0=The Foretelling
TTITLE1=Dream on Until Tomorrow
TTITLE2=Summoning the Ancients
TTITLE3=Watcher of the Dawn
TTITLE4=Under the Stars
TTITLE5=Whisper of the Panpipes
EXTD=YEAR: 2001
EXTT0=
EXTT1=
EXTT2=
EXTT3=
EXTT4=
EXTT5=
PLAYORDER=
